<?xml version="1.0" encoding="UTF-8"?>
<svg version="1.1" xmlns="http://www.w3.org/2000/svg" width="1080" height="1080">
<path d="M0 0 C67.32 0 134.64 0 204 0 C204 77.88 204 155.76 204 236 C322.73258482 234.69524632 438.93783851 228.99668892 556.8671875 216.98828125 C557.72026678 216.90172775 558.57334606 216.81517426 559.45227623 216.72599792 C561.90437523 216.47678533 564.35629471 216.22590883 566.80810547 215.97387695 C567.58099442 215.8945952 568.35388338 215.81531345 569.15019321 215.73362923 C572.98807077 215.33420117 576.82019909 214.90694417 580.6494751 214.43173218 C581.78111934 214.29226182 581.78111934 214.29226182 582.93562508 214.14997387 C584.98275031 213.89451917 587.02891057 213.63136415 589.07498169 213.36759949 C593.4061586 212.96196102 597.6550682 212.92094875 602 213 C605.00740527 232.59488077 607.2319659 252.28801861 609.54469275 271.97385645 C610.12357682 276.89730766 610.7051524 281.82044107 611.28633118 286.74362183 C612.25884041 294.98528374 613.229311 303.22718369 614.19848633 311.46923828 C615.31894082 320.99761514 616.44249585 330.52562255 617.56770295 340.05343926 C618.65377285 349.25032655 619.73786996 358.44744529 620.82099342 367.64468002 C621.28090788 371.54979483 621.74148251 375.45483094 622.20258141 379.35980606 C622.74348067 383.94147601 623.28264551 388.52334678 623.82044983 393.10538101 C624.0181892 394.78772006 624.21652468 396.46998916 624.4154911 398.15218353 C624.68625575 400.44226285 624.95488157 402.73258303 625.22294617 405.02297974 C625.44939332 406.9468687 625.44939332 406.9468687 625.68041515 408.9096241 C626 412 626 412 626 415 C617.48772975 416.70086016 608.95883938 417.77642935 600.33203125 418.69921875 C598.88647702 418.8564076 597.44094125 419.01376633 595.99542236 419.17127991 C591.26856334 419.68409652 586.54059821 420.18625894 581.8125 420.6875 C580.99663799 420.77433548 580.18077599 420.86117096 579.34019089 420.95063782 C508.35786035 428.50469482 437.24809589 434.36611804 365.9375 437.6875 C364.63136749 437.74852905 363.32523499 437.80955811 361.97952271 437.87243652 C352.98774848 438.2868546 343.99485572 438.65916867 335 439 C333.69914459 439.05012238 332.39828918 439.10024475 331.05801392 439.15188599 C303.97819654 440.1732329 276.90856912 440.11506134 249.8125 440.0625 C227.1353125 440.0315625 227.1353125 440.0315625 204 440 C204 476.96 204 513.92 204 552 C208.62 552.33 213.24 552.66 218 553 C220.5452548 553.31849234 223.08666561 553.67396633 225.6171875 554.09375 C226.26505219 554.20076736 226.91291687 554.30778473 227.58041382 554.41804504 C229.68031653 554.76941755 231.77776786 555.13304095 233.875 555.5 C234.98433899 555.69207535 234.98433899 555.69207535 236.11608887 555.88803101 C325.86833818 571.53323468 416.46071961 602.672167 502 694 C502.48855469 694.65339355 502.97710938 695.30678711 503.48046875 695.97998047 C510.79843967 705.83995864 517.16778317 715.99402291 522.87695312 726.86376953 C523.91792832 728.84388539 524.98069563 730.81073122 526.046875 732.77734375 C564.30199243 804.77860075 561.33607246 892.42258842 540 969 C539.67 969.66 539.34 970.32 539 971 C531.5389419 970.36370062 524.61127811 968.36001234 517.4296875 966.30078125 C516.06338991 965.91363379 514.69694052 965.52702169 513.33035278 965.14089966 C510.3890208 964.3086533 507.44875589 963.47277164 504.50927734 962.63400269 C499.8085765 961.29270213 495.10564386 959.95935031 490.40234375 958.62719727 C484.57869284 956.97716101 478.75559968 955.3251818 472.93317032 953.67084026 C461.73261766 950.48864279 450.5275187 947.32274029 439.3203125 944.1640625 C438.04155558 943.80363515 438.04155558 943.80363515 436.73696518 943.43592644 C433.32030137 942.47295695 429.90361349 941.51007293 426.48688316 940.54733944 C421.62073788 939.17619677 416.75473671 937.80454537 411.88900566 936.4319334 C410.34214414 935.99557773 408.79525521 935.55931917 407.2483387 935.12315845 C403.46184463 934.05536584 399.67585715 932.98584031 395.89089966 931.91261292 C388.54920643 929.8329735 381.20260163 927.77539023 373.84060669 925.76861858 C370.19235463 924.77295762 366.54667899 923.76804884 362.90118408 922.76234627 C361.14328056 922.28017308 359.38412679 921.80253357 357.62371826 921.32958794 C355.18860917 920.67506428 352.75814563 920.00540363 350.328125 919.33227539 C349.59778046 919.14031397 348.86743591 918.94835255 348.11495972 918.75057411 C346.10644531 918.18470764 346.10644531 918.18470764 343 917 C341.92345532 913.77036596 342.04596424 913.00547292 342.890625 909.8515625 C343.10436768 909.02205078 343.31811035 908.19253906 343.53833008 907.33789062 C343.77318115 906.44263672 344.00803223 905.54738281 344.25 904.625 C350.95183407 877.60320502 355.50614207 846.66841683 340.5546875 821.57421875 C339.10780137 819.32056103 337.59011866 817.1544872 336 815 C335.58492187 814.41863281 335.16984375 813.83726562 334.7421875 813.23828125 C307.48468215 778.22789265 249.01025947 767.36637142 208.49243164 759.55322266 C206 759 206 759 204 758 C204 843.14 204 928.28 204 1016 C136.68 1016 69.36 1016 0 1016 C0 926.9 0 837.8 0 746 C-93.05058982 750.65252949 -185.3964373 757.97962163 -351.6171875 781.01977539 C-352.50536667 781.15596786 -353.39354584 781.29216034 -354.30863953 781.43247986 C-355.92506215 781.6809159 -357.5410106 781.93246924 -359.15632629 782.18800354 C-362.81531788 782.75008282 -366.30299103 783.04929246 -370 783 C-377.28801584 737.35359742 -384.48043874 691.6923483 -391.58453369 646.01696777 C-392.40412776 640.74763503 -393.22512172 635.47852431 -394.04730225 630.20959473 C-395.0251608 623.94206141 -395.99994819 617.67405806 -396.97233772 611.40567398 C-397.33464131 609.07314391 -397.69796301 606.74077173 -398.0623455 604.40856552 C-398.56239059 601.20656701 -399.05866505 598.00400648 -399.55395508 594.80126953 C-399.77583024 593.38879629 -399.77583024 593.38879629 -400.00218773 591.94778824 C-400.13482836 591.08492077 -400.26746899 590.2220533 -400.40412903 589.33303833 C-400.51998258 588.58780474 -400.63583612 587.84257114 -400.75520039 587.07475471 C-401 585 -401 585 -401 581 C-326.52127795 569.60765605 -251.93824169 559.57113493 -40.9375 542.75 C-39.53257797 542.68806458 -39.53257797 542.68806458 -38.09927368 542.62487793 C-35.42966411 542.50973079 -32.75987562 542.40173273 -30.08984375 542.296875 C-29.3589151 542.26585693 -28.62798645 542.23483887 -27.87490845 542.20288086 C-18.57794303 541.86210898 -9.31802498 542 0 542 C0 502.73 0 463.46 0 423 C-4.95 422.34 -9.9 421.68 -15 421 C-18.0809863 420.47649577 -21.13919278 419.93829756 -24.203125 419.3359375 C-24.99619553 419.18325409 -25.78926605 419.03057068 -26.60636902 418.8732605 C-29.1554661 418.37986086 -31.70290041 417.8786045 -34.25 417.375 C-35.58624924 417.11172913 -35.58624924 417.11172913 -36.94949341 416.84313965 C-124.41564777 399.56170439 -211.5115468 372.22308189 -328 285 C-329.01254315 284.091915 -330.02558718 283.18438828 -331.0390625 282.27734375 C-336.00976594 277.8076477 -340.82037443 273.32890014 -345.1171875 268.19140625 C-347.04257934 265.95044189 -349.06143956 263.81506141 -351.09814453 261.67553711 C-358.7335928 253.60911455 -365.40996159 244.92898986 -372 236 C-372.45117188 235.39542969 -372.90234375 234.79085937 -373.3671875 234.16796875 C-380.56362209 224.50730049 -386.92016225 214.39483668 -393 204 C-393.68280029 202.83621826 -393.68280029 202.83621826 -394.37939453 201.64892578 C-405.83998099 181.93997408 -414.43869579 161.40035585 -421.625 139.8125 C-421.88924774 139.01956543 -422.15349548 138.22663086 -422.42575073 137.40966797 C-423.17915098 135.13609849 -423.92389422 132.85993955 -424.6640625 130.58203125 C-424.88644089 129.90489578 -425.10881927 129.22776031 -425.3379364 128.53010559 C-426.5617021 124.70841027 -427.44312364 120.97379288 -428 117 C-405.40480704 110.98042462 -382.80179627 104.99111732 -360.18359375 99.05859375 C-359.36656416 98.84427704 -358.54953457 98.62996033 -357.70774651 98.40914917 C-350.06894127 96.405522 -342.42994405 94.40262862 -334.79037476 92.4019165 C-317.22414571 87.80142362 -299.66092039 83.19140833 -282.12094688 78.491642 C-279.83556422 77.87936592 -277.54999102 77.26780631 -275.26435852 76.65646362 C-268.88197832 74.94893917 -262.50019362 73.23946548 -256.12234879 71.5150671 C-252.97472959 70.66558923 -249.82506508 69.82375071 -246.67578125 68.98046875 C-245.55577728 68.67531845 -244.43577332 68.37016815 -243.28182983 68.05577087 C-242.25594757 67.78237381 -241.23006531 67.50897675 -240.1730957 67.22729492 C-238.84626518 66.86930061 -238.84626518 66.86930061 -237.49263 66.5040741 C-234.92863069 65.98556728 -232.60855428 65.90807494 -230 66 C-229.82984375 66.52207031 -229.6596875 67.04414062 -229.484375 67.58203125 C-217.77404663 103.14903922 -197.15301144 131.79482663 -166 153 C-165.29069336 153.48388184 -164.58138672 153.96776367 -163.85058594 154.46630859 C-121.88899764 182.72292581 -73.55589574 197.95641455 -24.82421875 209.72265625 C-24.0534903 209.90965591 -23.28276184 210.09665558 -22.48867798 210.2893219 C-15.0214516 212.06354637 -7.54294273 213.49141145 0 215 C0 144.05 0 73.1 0 0 Z " fill="#660B0B" transform="translate(441,32)"/>
</svg>
